<?xml version="1.0" standalone="no"?>
<!DOCTYPE svg PUBLIC "-//W3C//DTD SVG 20010904//EN"
 "http://www.w3.org/TR/2001/REC-SVG-20010904/DTD/svg10.dtd">
<svg version="1.0" xmlns="http://www.w3.org/2000/svg"
 width="512.000000pt" height="512.000000pt" viewBox="0 0 512.000000 512.000000"
 preserveAspectRatio="xMidYMid meet">

<g transform="translate(0.000000,512.000000) scale(0.100000,-0.100000)"
fill="#ffffff" stroke="none">
<path d="M930 4464 c-229 -49 -431 -246 -484 -474 -14 -57 -16 -241 -16 -1430
0 -1516 -4 -1425 68 -1570 54 -110 168 -223 282 -279 154 -75 45 -71 1780 -71
1735 0 1626 -4 1780 71 114 56 228 169 282 279 72 145 68 54 68 1570 0 1516 4
1425 -68 1570 -54 110 -168 223 -282 279 -154 75 -45 71 -1785 70 -1296 0
-1571 -3 -1625 -15z m1420 -1904 l0 -1490 -665 0 c-578 0 -671 2 -703 15 -47
20 -78 50 -105 100 l-22 40 0 1335 0 1335 22 40 c26 49 57 79 103 99 30 13
129 15 703 16 l667 0 0 -1490z m1585 1043 c22 -11 50 -32 62 -45 75 -80 68
-224 -13 -300 -61 -57 -71 -58 -464 -58 -393 0 -404 1 -463 58 -104 98 -84
276 38 339 57 30 82 32 440 30 348 -2 361 -3 400 -24z m0 -640 c22 -11 50 -32
62 -45 75 -80 68 -224 -13 -300 -61 -57 -71 -58 -464 -58 -393 0 -404 1 -463
58 -104 98 -84 276 38 339 57 30 82 32 440 30 348 -2 361 -3 400 -24z"/>
</g>
</svg>
